HIERARCHY
ROOT Hips
{
	OFFSET 0.000000 0.000000 0.000000
	CHANNELS 6 Xposition Yposition Zposition Zrotation Yrotation Xrotation 
	JOINT LHipJoint
	{
		OFFSET 0.000000 0.000000 0.000000
		CHANNELS 3 Zrotation Yrotation Xrotation
		JOINT LeftUpLeg
		{
			OFFSET 1.363060 -1.794630 0.839290
			CHANNELS 3 Zrotation Yrotation Xrotation
			JOINT LeftLeg
			{
				OFFSET 2.448110 -6.726130 0.000000
				CHANNELS 3 Zrotation Yrotation Xrotation
				JOINT LeftFoot
				{
					OFFSET 2.562200 -7.039590 0.000000
					CHANNELS 3 Zrotation Yrotation Xrotation
					JOINT LeftToeBase
					{
						OFFSET 0.157640 -0.433110 2.322550
						CHANNELS 3 Zrotation Yrotation Xrotation
						End Site
						{
							OFFSET 0.000000 0.000000 0.000000
						}
					}
				}
			}
		}
	}
	JOINT RHipJoint
	{
		OFFSET 0.000000 0.000000 0.000000
		CHANNELS 3 Zrotation Yrotation Xrotation
		JOINT RightUpLeg
		{
			OFFSET -1.305520 -1.794630 0.839290
			CHANNELS 3 Zrotation Yrotation Xrotation
			JOINT RightLeg
			{
				OFFSET -2.542530 -6.985550 0.000000
				CHANNELS 3 Zrotation Yrotation Xrotation
				JOINT RightFoot
				{
					OFFSET -2.568260 -7.056230 0.000000
					CHANNELS 3 Zrotation Yrotation Xrotation
					JOINT RightToeBase
					{
						OFFSET -0.164730 -0.452590 2.363150
						CHANNELS 3 Zrotation Yrotation Xrotation
						End Site
						{
							OFFSET 0.000000 0.000000 0.000000
						}
					}
				}
			}
		}
	}
	JOINT LowerBack
	{
		OFFSET 0.000000 0.000000 0.000000
		CHANNELS 3 Zrotation Yrotation Xrotation
		JOINT Spine
		{
			OFFSET 0.028270 2.035590 -0.193380
			CHANNELS 3 Zrotation Yrotation Xrotation
			JOINT Spine1
			{
				OFFSET 0.056720 2.048850 -0.042750
				CHANNELS 3 Zrotation Yrotation Xrotation
				JOINT Neck
				{
					OFFSET 0.000000 0.000000 0.000000
					CHANNELS 3 Zrotation Yrotation Xrotation
					JOINT Neck1
					{
						OFFSET -0.054170 1.746240 0.172020
						CHANNELS 3 Zrotation Yrotation Xrotation
						JOINT Head
						{
							OFFSET 0.104070 1.761360 -0.123970
							CHANNELS 3 Zrotation Yrotation Xrotation
							End Site
							{
								OFFSET 0.000000 0.000000 0.000000
							}
						}
					}
				}
				JOINT LeftShoulder
				{
					OFFSET 0.000000 0.000000 0.000000
					CHANNELS 3 Zrotation Yrotation Xrotation
					JOINT LeftArm
					{
						OFFSET 3.362410 1.200890 -0.311210
						CHANNELS 3 Zrotation Yrotation Xrotation
						JOINT LeftForeArm
						{
							OFFSET 4.983000 -0.000000 -0.000000
							CHANNELS 3 Zrotation Yrotation Xrotation
							JOINT LeftHand
							{
								OFFSET 3.483560 -0.000000 -0.000000
								CHANNELS 3 Zrotation Yrotation Xrotation
								JOINT LeftFingerBase
								{
									OFFSET 0.000000 0.000000 0.000000
									CHANNELS 3 Zrotation Yrotation Xrotation
									JOINT LeftHandIndex1
									{
										OFFSET 0.715260 -0.000000 -0.000000
										CHANNELS 3 Zrotation Yrotation Xrotation
										End Site
										{
											OFFSET 0.000000 0.000000 0.000000
										}
									}
								}
								JOINT LThumb
								{
									OFFSET 0.000000 0.000000 0.000000
									CHANNELS 3 Zrotation Yrotation Xrotation
									End Site
									{
										OFFSET 0.000000 0.000000 0.000000
									}
								}
							}
						}
					}
				}
				JOINT RightShoulder
				{
					OFFSET 0.000000 0.000000 0.000000
					CHANNELS 3 Zrotation Yrotation Xrotation
					JOINT RightArm
					{
						OFFSET -3.136600 1.374050 -0.404650
						CHANNELS 3 Zrotation Yrotation Xrotation
						JOINT RightForeArm
						{
							OFFSET -5.241900 -0.000000 -0.000000
							CHANNELS 3 Zrotation Yrotation Xrotation
							JOINT RightHand
							{
								OFFSET -3.444170 -0.000000 -0.000000
								CHANNELS 3 Zrotation Yrotation Xrotation
								JOINT RightFingerBase
								{
									OFFSET 0.000000 0.000000 0.000000
									CHANNELS 3 Zrotation Yrotation Xrotation
									JOINT RightHandIndex1
									{
										OFFSET -0.622530 -0.000000 -0.000000
										CHANNELS 3 Zrotation Yrotation Xrotation
										End Site
										{
											OFFSET 0.000000 0.000000 0.000000
										}
									}
								}
								JOINT RThumb
								{
									OFFSET 0.000000 0.000000 0.000000
									CHANNELS 3 Zrotation Yrotation Xrotation
									End Site
									{
										OFFSET 0.000000 0.000000 0.000000
									}
								}
							}
						}
					}
				}
			}
		}
	}
}
MOTION
Frames: 9
Frame Time: 0.008333
0.762196 16.584027 -3.228079 -5.481520 4.242319 2.602005 -4.096196 -3.390513 -2.736011 -1.972853 -6.335688 -39.483469 4.821718 14.405254 42.508556 0.306911 2.053225 12.909191 0.298200 -3.511400 -9.706100 3.954388 1.544289 1.755434 19.484911 -5.104833 8.709234 -5.749385 -14.792580 42.450660 6.943822 -30.040532 6.065482 -0.702900 5.358800 -14.934900 4.951175 1.426843 12.886835 1.050888 2.497739 -0.561010 -2.843316 1.359285 -4.634634 -0.740647 -0.623090 -19.309201 6.056803 -1.478763 -1.009336 -0.766700 -1.043600 4.931800 3.453169 -1.515326 0.296207 -86.206162 9.630874 20.795548 33.349952 -43.347058 -12.886054 0.204082 0.357948 -5.154183 18.761305 -0.117865 -0.159500 -7.125000 0.000000 0.000000 -6.297100 29.450700 2.400300 -2.756739 1.402387 0.080758 85.495650 -0.270928 23.713298 -18.685538 29.162486 -4.814420 0.158691 -0.537719 -13.368431 -20.243953 0.332068 -0.343300 7.125000 0.000000 0.000000 4.907900 -28.974400 1.922500 
0.811922 16.659766 -2.996459 -4.843554 4.007969 2.579530 -4.226358 -3.351368 -2.602373 -2.827369 -6.185515 -38.469745 4.766932 14.366557 42.359224 0.152021 2.522060 12.124687 0.305800 -3.555400 -9.829000 3.972575 1.556639 1.663796 18.471337 -4.514941 7.323578 -6.575830 -15.484612 45.208593 6.466753 -29.638428 9.132616 -0.526800 4.651200 -12.916300 4.297512 1.426589 12.696490 0.975416 2.403539 -0.687587 -2.539637 1.318546 -4.732101 -0.593763 -0.508059 -19.179891 5.985537 -1.350326 -0.423349 -0.808300 -0.946700 5.105100 3.468634 -1.502527 0.282616 -86.288867 8.806260 21.135733 31.572156 -41.908707 -11.700098 0.197253 0.321649 -3.349111 16.995366 -1.511696 -0.554000 -7.125000 0.000000 0.000000 -7.562700 28.032300 3.146500 -2.778273 1.432535 0.090767 85.534042 -0.911131 24.156998 -17.530700 27.763191 -4.292741 0.145440 -0.524309 -12.100507 -19.448405 0.080589 -0.232400 7.125000 0.000000 0.000000 5.540100 -29.262700 2.134100 
0.858046 16.735506 -2.771142 -4.123176 3.797532 2.567053 -4.369108 -3.311564 -2.464313 -3.727247 -6.178892 -37.417070 4.693266 14.312671 42.135878 -0.035495 3.126069 11.346333 0.314800 -3.606600 -9.972500 3.987278 1.574804 1.564856 17.392127 -3.919902 5.843484 -7.437230 -16.138644 48.052362 6.035819 -29.199486 11.435315 -0.339000 3.741400 -10.350300 3.510444 1.396412 12.512070 0.898963 2.254312 -0.813583 -2.154319 1.253213 -4.834873 -0.421658 -0.368679 -19.078500 5.956452 -1.190031 0.201169 -0.837600 -0.827600 5.297700 3.480887 -1.485397 0.269729 -86.415344 8.126379 21.375312 30.098637 -40.644079 -10.740689 0.187263 0.284881 -1.728686 15.254876 -2.868520 -0.850000 -7.125000 0.000000 0.000000 -8.787300 26.683200 3.948900 -2.799652 1.465860 0.099201 85.564837 -1.432586 24.427516 -16.372518 26.317226 -3.793163 0.129775 -0.506995 -10.194793 -18.369942 -0.135027 -0.138200 7.125000 0.000000 0.000000 6.392400 -29.513600 2.427400 
0.900769 16.811045 -2.551627 -3.364256 3.619422 2.550739 -4.522417 -3.269989 -2.323269 -4.645332 -6.290590 -36.302437 4.589052 14.230581 41.792519 -0.250827 3.851209 10.632809 0.323600 -3.656500 -10.112100 3.998557 1.597556 1.461800 16.284483 -3.365482 4.324311 -8.301706 -16.731642 50.874448 5.752182 -28.899705 12.824748 -0.191000 2.814300 -7.762300 2.654005 1.335989 12.339405 0.827724 2.058368 -0.925284 -1.714353 1.166553 -4.922838 -0.270335 -0.233471 -19.029030 5.995341 -1.022570 0.860681 -0.839700 -0.697500 5.513000 3.488894 -1.461944 0.257035 -86.557869 7.575864 21.598419 28.929485 -39.592019 -9.995422 0.174499 0.251397 -0.441393 13.615047 -4.045999 -1.028000 -7.125000 0.000000 0.000000 -9.926600 25.538600 4.744800 -2.820780 1.503667 0.106478 85.600413 -1.859254 24.432613 -15.261128 24.892139 -3.337533 0.112256 -0.485739 -7.767532 -17.072206 -0.242505 -0.085400 7.125000 0.000000 0.000000 7.410300 -29.650300 2.795200 
0.940189 16.886384 -2.338016 -2.628331 3.477400 2.509856 -4.680732 -3.226133 -2.180317 -5.531654 -6.485003 -35.120132 4.460820 14.122926 41.348893 -0.483696 4.649528 9.990568 0.333800 -3.712900 -10.270400 4.005951 1.622987 1.356139 15.213637 -2.871548 2.789797 -9.155547 -17.260617 53.629705 5.651551 -28.829154 13.348434 -0.092400 1.960500 -5.396600 1.801919 1.246489 12.202105 0.772181 1.826953 -1.011359 -1.253641 1.064223 -4.992396 -0.065844 -0.047216 -18.942771 5.990588 -0.807863 1.408476 -0.859300 -0.552700 5.685200 3.496460 -1.447693 0.248308 -86.691270 7.122219 21.871529 28.041425 -38.765005 -9.439617 0.160233 0.224563 0.399251 12.160459 -4.933765 -1.097000 -7.125000 0.000000 0.000000 -10.931700 24.694700 5.460200 -2.837900 1.531199 0.111830 85.649267 -2.206573 24.105236 -14.221382 23.526380 -2.933534 0.092622 -0.460724 -4.892005 -15.637140 -0.148745 -0.094500 7.125000 0.000000 0.000000 8.519500 -29.578400 3.236200 
0.976908 16.961523 -2.129508 -1.954234 3.361226 2.434757 -4.839829 -3.178519 -2.035698 -6.351254 -6.735781 -33.867685 4.313404 13.992449 40.818876 -0.727627 5.493256 9.427648 0.344300 -3.770600 -10.432300 4.009817 1.650679 1.249173 14.211834 -2.437735 1.255429 -9.974815 -17.721908 56.270654 5.719455 -28.911857 13.026805 -0.045800 1.380500 -3.796400 1.003556 1.133673 12.106395 0.737310 1.574534 -1.068911 -0.794036 0.951438 -5.039593 0.155354 0.169524 -18.878977 5.957806 -0.560229 1.858572 -0.887100 -0.399400 5.829200 3.503424 -1.440275 0.242673 -86.796838 6.744084 22.245972 27.395172 -38.148535 -9.040366 0.145266 0.206757 0.760358 10.919554 -5.444086 -1.075400 -7.125000 0.000000 0.000000 -11.796000 24.225600 6.040400 -2.850998 1.550944 0.115852 85.711324 -2.503004 23.418377 -13.274613 22.256755 -2.585681 0.072087 -0.432507 -1.724520 -14.157831 0.142098 -0.149500 7.125000 0.000000 0.000000 9.641700 -29.307000 3.736100 
1.010726 17.036963 -1.926302 -1.393660 3.266587 2.324376 -4.994221 -3.127084 -1.890245 -7.053160 -7.006620 -32.561144 4.151216 13.841462 40.215790 -0.973041 6.344483 8.947136 0.351200 -3.807500 -10.535700 4.011668 1.681037 1.141389 13.334247 -2.059968 -0.287323 -10.739998 -18.115982 58.754404 5.892241 -29.027566 12.058381 -0.035000 1.207200 -3.319200 0.321076 1.006065 12.072492 0.731352 1.321315 -1.105572 -0.362202 0.836019 -5.085277 0.381006 0.396327 -18.811004 5.903622 -0.304278 2.216861 -0.921400 -0.249300 5.942500 3.510059 -1.439352 0.239497 -86.854503 6.417581 22.773629 26.936580 -37.704253 -8.759167 0.130403 0.197570 0.663829 9.882280 -5.610194 -0.997800 -7.125000 0.000000 0.000000 -12.532400 24.089600 6.475400 -2.860302 1.563444 0.118948 85.785552 -2.771618 22.377872 -12.437166 21.114086 -2.295601 0.053415 -0.403129 1.527099 -12.764928 0.495385 -0.206600 7.125000 0.000000 0.000000 10.683300 -28.975400 4.237900 
1.042842 17.113002 -1.727198 -0.940795 3.170756 2.191718 -5.142293 -3.072414 -1.743558 -7.650226 -7.257125 -31.223931 3.978255 13.673672 39.555753 -1.215516 7.183659 8.536445 0.352900 -3.816700 -10.561700 4.012788 1.712186 1.032677 12.560692 -1.718263 -1.841110 -11.443363 -18.447870 61.042914 6.075763 -29.075904 10.852891 -0.035300 1.213600 -3.336600 -0.246385 0.873676 12.064710 0.753141 1.078384 -1.116429 0.039258 0.723607 -5.104873 0.632515 0.650778 -18.764582 5.803431 -0.022969 2.462681 -0.972700 -0.096900 6.022200 3.517673 -1.446639 0.239107 -86.864903 6.102214 23.455513 26.619912 -37.395817 -8.566337 0.117225 0.195608 0.150045 9.086903 -5.519663 -0.901300 -7.125000 0.000000 0.000000 -13.113800 24.195500 6.758200 -2.865030 1.566298 0.121410 85.858669 -3.009710 21.059423 -11.707535 20.103130 -2.057440 0.038695 -0.374838 4.637609 -11.536843 0.790497 -0.240000 7.125000 0.000000 0.000000 11.596400 -28.703700 4.689900 
1.073358 17.189542 -1.532397 -0.625652 3.060878 2.054099 -5.279895 -3.015941 -1.597237 -8.109504 -7.461238 -29.894164 3.799769 13.493383 38.854766 -1.451738 7.998631 8.191348 0.348500 -3.793100 -10.495200 4.014991 1.744904 0.921419 11.931123 -1.383307 -3.421730 -12.086155 -18.725011 63.115012 6.208752 -29.037093 9.789443 -0.030800 1.133300 -3.115600 -0.664508 0.745672 12.061471 0.808015 0.863318 -1.101789 0.397192 0.620961 -5.087781 0.869135 0.899064 -18.735963 5.702201 0.251896 2.638026 -1.022200 0.047200 6.081600 3.525539 -1.456704 0.239892 -86.829520 5.762070 24.286175 26.406583 -37.188813 -8.437120 0.105924 0.199138 -0.660142 8.511409 -5.239189 -0.802500 -7.125000 0.000000 0.000000 -13.554600 24.477700 6.906600 -2.866792 1.563257 0.123560 85.920306 -3.204464 19.532036 -11.071875 19.210630 -1.862309 0.028811 -0.350076 7.426500 -10.545307 0.933648 -0.240500 7.125000 0.000000 0.000000 12.339000 -28.582000 5.039500 
